<mxfile host="app.diagrams.net" modified="2021-05-29T12:42:22.762Z" agent="5.0 (Windows NT 10.0; WOW64) AppleWebKit/537.36 (KHTML, like Gecko) Chrome/86.0.4240.198 Safari/537.36" etag="9cY8m6ZPoidzcxcABqiy" version="14.7.2" type="github">
  <diagram name="Page-1" id="e7e014a7-5840-1c2e-5031-d8a46d1fe8dd">
    <mxGraphModel dx="1480" dy="821" grid="1" gridSize="10" guides="1" tooltips="1" connect="1" arrows="1" fold="1" page="1" pageScale="1" pageWidth="1169" pageHeight="826" background="none" math="0" shadow="0">
      <root>
        <mxCell id="0" />
        <mxCell id="1" parent="0" />
        <mxCell id="2" value="" style="swimlane;whiteSpace=wrap;startSize=23;" parent="1" vertex="1">
          <mxGeometry x="260" y="113" width="280" height="600" as="geometry" />
        </mxCell>
        <mxCell id="6" value="" style="edgeStyle=elbowEdgeStyle;elbow=horizontal;verticalAlign=bottom;endArrow=open;endSize=8;strokeColor=#FF0000;endFill=1;rounded=0;exitX=0.5;exitY=1;exitDx=0;exitDy=0;" parent="2" source="eLxxFDUcn6WxjexY7CTa-42" target="7" edge="1">
          <mxGeometry x="110" y="90" as="geometry">
            <mxPoint x="125" y="160" as="targetPoint" />
            <mxPoint x="125" y="120" as="sourcePoint" />
          </mxGeometry>
        </mxCell>
        <mxCell id="7" value="私钥" style="" parent="2" vertex="1">
          <mxGeometry x="80" y="160" width="110" height="30" as="geometry" />
        </mxCell>
        <mxCell id="8" value="SECP256K1" style="" parent="2" vertex="1">
          <mxGeometry x="80" y="220" width="110" height="30" as="geometry" />
        </mxCell>
        <mxCell id="9" value="" style="endArrow=open;strokeColor=#FF0000;endFill=1;rounded=0" parent="2" source="7" target="8" edge="1">
          <mxGeometry relative="1" as="geometry" />
        </mxCell>
        <mxCell id="eLxxFDUcn6WxjexY7CTa-44" style="edgeStyle=orthogonalEdgeStyle;rounded=0;orthogonalLoop=1;jettySize=auto;html=1;exitX=0.5;exitY=1;exitDx=0;exitDy=0;strokeColor=#FF3333;" edge="1" parent="2" source="10" target="eLxxFDUcn6WxjexY7CTa-43">
          <mxGeometry relative="1" as="geometry" />
        </mxCell>
        <mxCell id="10" value="公钥" style="" parent="2" vertex="1">
          <mxGeometry x="80" y="280" width="110" height="30" as="geometry" />
        </mxCell>
        <mxCell id="11" value="" style="endArrow=open;strokeColor=#FF0000;endFill=1;rounded=0" parent="2" source="8" target="10" edge="1">
          <mxGeometry relative="1" as="geometry" />
        </mxCell>
        <mxCell id="eLxxFDUcn6WxjexY7CTa-42" value="随机数" style="" vertex="1" parent="2">
          <mxGeometry x="80" y="100" width="110" height="30" as="geometry" />
        </mxCell>
        <mxCell id="eLxxFDUcn6WxjexY7CTa-43" value="SHA256" style="" vertex="1" parent="2">
          <mxGeometry x="80" y="350" width="110" height="30" as="geometry" />
        </mxCell>
        <mxCell id="eLxxFDUcn6WxjexY7CTa-45" value="RIPEMD160" style="" vertex="1" parent="2">
          <mxGeometry x="80" y="420" width="110" height="30" as="geometry" />
        </mxCell>
        <mxCell id="eLxxFDUcn6WxjexY7CTa-46" value="" style="edgeStyle=orthogonalEdgeStyle;rounded=0;orthogonalLoop=1;jettySize=auto;html=1;strokeColor=#FF3333;" edge="1" parent="2" source="eLxxFDUcn6WxjexY7CTa-43" target="eLxxFDUcn6WxjexY7CTa-45">
          <mxGeometry relative="1" as="geometry" />
        </mxCell>
        <mxCell id="eLxxFDUcn6WxjexY7CTa-47" value="1" style="text;html=1;strokeColor=none;fillColor=none;align=center;verticalAlign=middle;whiteSpace=wrap;rounded=0;" vertex="1" parent="2">
          <mxGeometry x="20" y="105" width="40" height="20" as="geometry" />
        </mxCell>
        <mxCell id="eLxxFDUcn6WxjexY7CTa-49" value="2" style="text;html=1;strokeColor=none;fillColor=none;align=center;verticalAlign=middle;whiteSpace=wrap;rounded=0;" vertex="1" parent="2">
          <mxGeometry x="20" y="225" width="40" height="20" as="geometry" />
        </mxCell>
        <mxCell id="3" value="" style="swimlane;whiteSpace=wrap" parent="1" vertex="1">
          <mxGeometry x="570" y="113" width="370" height="600" as="geometry" />
        </mxCell>
        <mxCell id="eLxxFDUcn6WxjexY7CTa-55" style="edgeStyle=orthogonalEdgeStyle;rounded=0;orthogonalLoop=1;jettySize=auto;html=1;strokeColor=#FF3333;" edge="1" parent="3" source="15" target="eLxxFDUcn6WxjexY7CTa-53">
          <mxGeometry relative="1" as="geometry" />
        </mxCell>
        <mxCell id="eLxxFDUcn6WxjexY7CTa-61" style="edgeStyle=orthogonalEdgeStyle;rounded=0;orthogonalLoop=1;jettySize=auto;html=1;strokeColor=#FF3333;" edge="1" parent="3" source="15" target="16">
          <mxGeometry relative="1" as="geometry">
            <Array as="points">
              <mxPoint x="65" y="160" />
              <mxPoint x="185" y="160" />
            </Array>
          </mxGeometry>
        </mxCell>
        <mxCell id="15" value="0x00 公钥哈希" style="" parent="3" vertex="1">
          <mxGeometry x="20" y="60" width="90" height="50" as="geometry" />
        </mxCell>
        <mxCell id="16" value="0x00 公钥哈希 校验" style="fontSize=18;" parent="3" vertex="1">
          <mxGeometry x="100" y="200" width="170" height="60" as="geometry" />
        </mxCell>
        <mxCell id="18" value="BASE58&#xa;编码" style="" parent="3" vertex="1">
          <mxGeometry x="130" y="325" width="110" height="50" as="geometry" />
        </mxCell>
        <mxCell id="19" value="" style="endArrow=open;strokeColor=#FF0000;endFill=1;rounded=0" parent="3" source="16" target="18" edge="1">
          <mxGeometry relative="1" as="geometry" />
        </mxCell>
        <mxCell id="31" value="钱包地址" style="shape=note;whiteSpace=wrap;size=17" parent="3" vertex="1">
          <mxGeometry x="135" y="450" width="100" height="50" as="geometry" />
        </mxCell>
        <mxCell id="32" value="" style="endArrow=none;strokeColor=#FF0000;endFill=0;rounded=0;dashed=1" parent="3" source="18" target="31" edge="1">
          <mxGeometry relative="1" as="geometry" />
        </mxCell>
        <mxCell id="eLxxFDUcn6WxjexY7CTa-53" value="DOUBLE&lt;br&gt;SHA256" style="rounded=1;whiteSpace=wrap;html=1;" vertex="1" parent="3">
          <mxGeometry x="145" y="65" width="80" height="40" as="geometry" />
        </mxCell>
        <mxCell id="eLxxFDUcn6WxjexY7CTa-54" value="4" style="text;html=1;strokeColor=none;fillColor=none;align=center;verticalAlign=middle;whiteSpace=wrap;rounded=0;" vertex="1" parent="3">
          <mxGeometry x="165" y="30" width="40" height="20" as="geometry" />
        </mxCell>
        <mxCell id="eLxxFDUcn6WxjexY7CTa-60" style="edgeStyle=orthogonalEdgeStyle;rounded=0;orthogonalLoop=1;jettySize=auto;html=1;strokeColor=#FF3333;" edge="1" parent="3" source="eLxxFDUcn6WxjexY7CTa-58" target="16">
          <mxGeometry relative="1" as="geometry">
            <Array as="points">
              <mxPoint x="300" y="160" />
              <mxPoint x="185" y="160" />
            </Array>
          </mxGeometry>
        </mxCell>
        <mxCell id="eLxxFDUcn6WxjexY7CTa-58" value="前四个字节" style="rounded=1;whiteSpace=wrap;html=1;" vertex="1" parent="3">
          <mxGeometry x="260" y="65" width="80" height="40" as="geometry" />
        </mxCell>
        <mxCell id="eLxxFDUcn6WxjexY7CTa-59" value="" style="edgeStyle=orthogonalEdgeStyle;rounded=0;orthogonalLoop=1;jettySize=auto;html=1;strokeColor=#FF3333;" edge="1" parent="3" source="eLxxFDUcn6WxjexY7CTa-53" target="eLxxFDUcn6WxjexY7CTa-58">
          <mxGeometry relative="1" as="geometry" />
        </mxCell>
        <mxCell id="eLxxFDUcn6WxjexY7CTa-64" value="5" style="text;html=1;strokeColor=none;fillColor=none;align=center;verticalAlign=middle;whiteSpace=wrap;rounded=0;fontSize=18;" vertex="1" parent="3">
          <mxGeometry x="280" y="350" width="40" height="20" as="geometry" />
        </mxCell>
        <mxCell id="eLxxFDUcn6WxjexY7CTa-50" value="" style="endArrow=none;html=1;strokeColor=#FF3333;exitX=0;exitY=0;exitDx=0;exitDy=0;" edge="1" parent="1" source="eLxxFDUcn6WxjexY7CTa-45">
          <mxGeometry width="50" height="50" relative="1" as="geometry">
            <mxPoint x="290" y="543" as="sourcePoint" />
            <mxPoint x="340" y="493" as="targetPoint" />
            <Array as="points">
              <mxPoint x="310" y="513" />
            </Array>
          </mxGeometry>
        </mxCell>
        <mxCell id="eLxxFDUcn6WxjexY7CTa-51" value="3" style="text;html=1;strokeColor=none;fillColor=none;align=center;verticalAlign=middle;whiteSpace=wrap;rounded=0;" vertex="1" parent="1">
          <mxGeometry x="270" y="503" width="40" height="20" as="geometry" />
        </mxCell>
        <mxCell id="eLxxFDUcn6WxjexY7CTa-52" style="edgeStyle=orthogonalEdgeStyle;rounded=0;orthogonalLoop=1;jettySize=auto;html=1;entryX=0;entryY=0.5;entryDx=0;entryDy=0;strokeColor=#FF3333;" edge="1" parent="1" source="eLxxFDUcn6WxjexY7CTa-45" target="15">
          <mxGeometry relative="1" as="geometry" />
        </mxCell>
      </root>
    </mxGraphModel>
  </diagram>
</mxfile>
